<?xml version="1.0" standalone="no"?><!DOCTYPE svg PUBLIC "-//W3C//DTD SVG 1.1//EN" "http://www.w3.org/Graphics/SVG/1.1/DTD/svg11.dtd"><svg class="icon" width="200px" height="200.00px" viewBox="0 0 1024 1024" version="1.1" xmlns="http://www.w3.org/2000/svg"><path fill="#ffffff" d="M512 1024a512 512 0 1 1 512-512 512 512 0 0 1-512 512z m0-960a448 448 0 1 0 448 448A448 448 0 0 0 512 64z m224 512a32 32 0 0 1-54.624 22.72L512 429.12l-169.376 169.6a32.064 32.064 0 0 1-45.248-45.44l192-192a32.224 32.224 0 0 1 45.248 0l192 192A32 32 0 0 1 736 576z" /></svg>